# xmcd
#
# Track frame offsets:
#	150
#	13307
#	26127
#	41627
#	57125
#	70901
#	86436
#	100946
#	122196
#	137226
#	152236
#	165524
#	177838
#	192885
#
# Disc length: 2779 seconds
#
# Revision: 1
# Processed by: cddbd v1.5.2PL0 Copyright (c) Steve Scherf et al.
# Submitted via: audiograbber 1.83.01
#
DISCID=be0ad90e
DTITLE=Nockalm Quintett - Ja
DYEAR=2009
DGENRE=Country
TTITLE0=Amore good bye
TTITLE1=Aus Liebe
TTITLE2=Das entscheidet dein Herz
TTITLE3=Der Sommer als Jenny sich verliebte
TTITLE4=Drei weiﬂe Rosen
TTITLE5=Eluisa
TTITLE6=Ich hab dich geliebt
TTITLE7=In der blauen Lagune
TTITLE8=Irgendwo im nirgendwo
TTITLE9=Ja (Album Version)
TTITLE10=Morgen ist noch eine Nacht entfernt
TTITLE11=Regen im Paradies
TTITLE12=Sag ja - ich will
TTITLE13=Wie ein Gebet
EXTD=
EXTT0=
EXTT1=
EXTT2=
EXTT3=
EXTT4=
EXTT5=
EXTT6=
EXTT7=
EXTT8=
EXTT9=
EXTT10=
EXTT11=
EXTT12=
EXTT13=
PLAYORDER=
